<?xml version="1.0" encoding="UTF-8" standalone="no"?>
<!-- Created with Inkscape (http://www.inkscape.org/) -->

<svg
   width="217.64481mm"
   height="111.61391mm"
   viewBox="0 0 217.64481 111.61391"
   version="1.1"
   id="svg1"
   xml:space="preserve"
   inkscape:version="1.3.2 (091e20e, 2023-11-25, custom)"
   sodipodi:docname="logov2.svg"
   xmlns:inkscape="http://www.inkscape.org/namespaces/inkscape"
   xmlns:sodipodi="http://sodipodi.sourceforge.net/DTD/sodipodi-0.dtd"
   xmlns="http://www.w3.org/2000/svg"
   xmlns:svg="http://www.w3.org/2000/svg"><sodipodi:namedview
     id="namedview1"
     pagecolor="#ffffff"
     bordercolor="#000000"
     borderopacity="0.25"
     inkscape:showpageshadow="2"
     inkscape:pageopacity="0.0"
     inkscape:pagecheckerboard="0"
     inkscape:deskcolor="#d1d1d1"
     inkscape:document-units="mm"
     inkscape:zoom="0.69219276"
     inkscape:cx="407.40097"
     inkscape:cy="487.58094"
     inkscape:window-width="1920"
     inkscape:window-height="991"
     inkscape:window-x="-9"
     inkscape:window-y="-9"
     inkscape:window-maximized="1"
     inkscape:current-layer="layer1" /><defs
     id="defs1"><rect
       x="312.05179"
       y="200.81111"
       width="88.12574"
       height="27.449001"
       id="rect2" /><style
       id="style1">
      .cls-1 {
        fill: #fc7b9f;
        stroke-width: 0px;
      }
    </style></defs><g
     inkscape:label="Capa 1"
     inkscape:groupmode="layer"
     id="layer1"
     transform="translate(3.0579151,-76.830117)"><path
       class="cls-1"
       d="m 99.961561,148.79496 c -0.08276,0.50123 -0.145876,1.0068 -0.249673,1.50369 -0.481125,2.29466 -1.081469,4.55166 -2.172757,6.63337 -0.775683,1.47907 -1.65797,2.87847 -2.822196,4.0736 -0.455872,0.46792 -0.922965,0.90251 -1.531729,1.14733 -0.291758,0.11735 -0.586321,0.18978 -0.8893,0.0623 -0.180946,-0.0753 -0.276328,0.0318 -0.380127,0.14776 -0.683106,0.76634 -1.434944,1.4501 -2.282163,2.01507 -1.690232,1.1256 -3.512316,1.86587 -5.536386,2.03246 -1.084273,0.0898 -2.134881,0.0145 -3.167256,-0.3781 -0.765864,-0.29117 -1.08287,-0.84891 -1.106715,-1.64856 -0.01122,-0.36941 -0.02665,-0.73882 -0.06312,-1.10532 -0.03927,-0.40127 -0.138865,-0.47371 -0.524603,-0.45777 -0.221624,0.009 -0.426416,0.0898 -0.635415,0.1521 -0.259496,0.0768 -0.524603,0.13472 -0.788307,0.19557 -0.610167,0.14197 -1.067441,-0.0927 -1.455984,-0.56063 -0.758851,-0.91264 -1.210514,-1.98175 -1.450373,-3.13922 -0.629804,-3.04072 -0.164114,-5.92498 1.230152,-8.66292 0.0533,-0.10431 0.09959,-0.21151 0.158503,-0.31147 0.05891,-0.0985 0.0505,-0.17963 -0.02104,-0.26944 -0.314201,-0.39983 -0.274926,-0.8634 -0.180946,-1.31538 0.201986,-0.97639 0.673287,-1.83544 1.195085,-2.65827 0.81075,-1.27916 1.768782,-2.43519 2.840431,-3.48836 1.245582,-1.22555 2.665096,-2.20628 4.129495,-3.12329 0.626999,-0.39258 1.276441,-0.7417 1.934299,-1.07489 0.03787,-0.0188 0.08276,-0.0333 0.09117,-0.1101 -0.614375,0.0942 -1.221736,0.20136 -1.834708,0.26656 -1.52191,0.16079 -3.045222,0.20715 -4.57134,0.0999 -1.993211,-0.13907 -3.907872,-0.62582 -5.750996,-1.41678 -0.638218,-0.27379 -1.249788,-0.60553 -1.782807,-1.0662 -0.401167,-0.34623 -0.758851,-0.72867 -0.742018,-1.32987 0.0042,-0.14921 -0.110812,-0.18977 -0.213208,-0.23902 -1.057622,-0.50558 -2.06054,-1.11401 -2.933008,-1.91077 -1.816473,-1.65871 -3.182685,-3.62598 -3.725523,-6.11766 -0.145879,-0.67217 -0.179543,-1.35302 -0.08977,-2.03969 0.06873,-0.52006 0.361892,-0.8518 0.796723,-1.05896 0.443248,-0.21005 0.903328,-0.3839 1.350783,-0.58526 0.328228,-0.14776 0.394154,-0.32015 0.218819,-0.6403 -0.196376,-0.36072 -0.416597,-0.70839 -0.641026,-1.05172 -0.448858,-0.68811 -0.380127,-1.34146 0.06452,-2.00638 0.685912,-1.02709 1.60046,-1.7775 2.641251,-2.37434 1.59064,-0.91265 3.304718,-1.37187 5.118385,-1.48486 1.098301,-0.0681 2.176963,0.0304 3.250014,0.24771 0.08837,0.0173 0.175336,0.0464 0.235651,-0.0493 0.349268,-0.55483 0.906132,-0.6432 1.471413,-0.66058 1.07726,-0.0348 2.112439,0.22889 3.130786,0.56063 1.876788,0.60988 3.634349,1.47762 5.239017,2.65972 0.781294,0.57511 1.531729,1.19224 2.266734,1.8311 0.555462,0.4824 1.078662,0.99667 1.586433,1.52976 0.02244,0.0232 0.04208,0.0579 0.110812,0.0275 -0.246872,-0.50413 -0.516187,-0.99667 -0.730797,-1.51528 -0.827583,-2.00059 -1.593447,-4.02725 -1.886607,-6.19443 -0.260899,-1.92236 -0.349268,-3.85775 0.02806,-5.78156 0.109409,-0.55918 0.279134,-1.09953 0.639623,-1.55006 0.129047,-0.16225 0.272121,-0.32015 0.474107,-0.36505 0.217415,-0.0478 0.267912,-0.19412 0.288952,-0.38534 0.10941,-1.00683 0.333839,-1.9861 0.673288,-2.93787 0.777085,-2.18312 2.018459,-4.025795 3.805476,-5.449815 0.800931,-0.63741 1.683218,-1.12271 2.705775,-1.28496 0.399763,-0.0638 0.740616,0.0275 1.044995,0.29553 0.294566,0.25931 0.524602,0.57657 0.765867,0.88512 0.130448,0.16805 0.26651,0.33464 0.41519,0.4853 0.196377,0.19702 0.342258,0.18833 0.548448,0.002 0.23145,-0.21005 0.39836,-0.4766 0.59053,-0.72142 0.0323,-0.042 0.0631,-0.0854 0.0968,-0.12749 0.78972,-0.959 1.10953,-0.99957 2.198,-0.65624 1.32694,0.41866 2.39719,1.27916 3.32436,2.31929 1.73231,1.944085 2.78573,4.230055 3.14762,6.850665 0.0126,0.0898 0.0421,0.17819 0.0407,0.26656 -0.006,0.24481 0.0856,0.37229 0.32402,0.47225 0.54003,0.22889 0.74763,0.75909 0.92297,1.28205 0.23845,0.71129 0.33945,1.4559 0.37451,2.20196 0.0828,1.76879 0.008,3.53325 -0.3689,5.26584 -0.34366,1.57758 -0.87247,3.09431 -1.47843,4.58497 -0.25669,0.63161 -0.53302,1.25453 -0.84582,1.85863 -0.0182,0.0362 -0.0252,0.0782 -0.0631,0.19411 0.35207,-0.34188 0.63962,-0.63596 0.9426,-0.91265 1.59345,-1.44865 3.2402,-2.82632 5.15065,-3.81863 1.66078,-0.86195 3.38608,-1.54138 5.24323,-1.79054 0.49234,-0.0666 0.9917,-0.0797 1.48544,0.0247 0.33244,0.0695 0.63682,0.1999 0.83179,0.50992 0.094,0.14921 0.22162,0.15355 0.36751,0.12168 1.01273,-0.22309 2.03949,-0.31001 3.07047,-0.24917 2.47433,0.14342 4.74808,0.88223 6.68939,2.5308 0.58211,0.49399 1.08427,1.06475 1.41671,1.78183 0.2132,0.46068 0.18515,0.89382 -0.0463,1.31684 -0.22303,0.40706 -0.47691,0.79674 -0.71256,1.19657 -0.23846,0.40128 -0.18516,0.59396 0.23004,0.78372 0.27913,0.12748 0.56808,0.22889 0.85283,0.34333 0.24406,0.0971 0.47971,0.21006 0.69993,0.36217 0.33244,0.22744 0.47691,0.55049 0.53302,0.94596 0.13466,0.95032 -0.006,1.87166 -0.28895,2.76982 -0.75184,2.38158 -2.17276,4.27497 -4.07479,5.79026 -0.72378,0.57801 -1.50928,1.072 -2.35931,1.44141 -0.14448,0.0623 -0.24968,0.13182 -0.24687,0.33029 0.007,0.51716 -0.29316,0.87642 -0.64383,1.18499 -0.69293,0.60988 -1.50649,1.00536 -2.3481,1.34 -2.4617,0.97639 -5.01458,1.37911 -7.64461,1.27337 -1.21052,-0.0493 -2.41963,-0.13328 -3.61612,-0.35492 -0.0547,-0.0101 -0.11782,-0.0362 -0.17954,0.0362 0.18094,0.1608 0.40677,0.23613 0.61016,0.34912 2.21063,1.22267 4.29502,2.62786 6.02733,4.52269 1.20771,1.32118 2.29198,2.74374 3.02138,4.41693 0.23004,0.52731 0.41519,1.07056 0.38714,1.66595 -0.01,0.21295 -0.0421,0.42156 -0.17394,0.58381 -0.13606,0.16659 -0.11782,0.30421 -0.0224,0.48384 0.74483,1.39361 1.24418,2.87413 1.46861,4.45316 0.32402,2.26859 0.11082,4.45605 -0.90332,6.52327 -0.23005,0.46936 -0.54144,0.87498 -0.90614,1.24729 -0.34225,0.34912 -0.73781,0.40996 -1.18106,0.34478 -0.37311,-0.055 -0.72939,-0.1753 -1.09128,-0.2796 -0.7322,-0.21439 -0.85704,-0.13472 -0.9426,0.63741 -0.028,0.25931 -0.0182,0.52152 -0.0295,0.78227 -0.0407,1.0155 -0.32683,1.42258 -1.24839,1.76011 -0.97206,0.35637 -1.97078,0.40997 -2.99333,0.33029 -1.54856,-0.12169 -2.99332,-0.5867 -4.36795,-1.30813 -1.26382,-0.66348 -2.38596,-1.52688 -3.3496,-2.60322 -0.19217,-0.21585 -0.35348,-0.33464 -0.68732,-0.24772 -0.49655,0.12893 -0.92998,-0.1637 -1.32974,-0.44473 -0.93138,-0.6519 -1.63272,-1.53992 -2.29339,-2.45981 -1.82348,-2.53948 -2.85024,-5.43244 -3.5081,-8.48764 -0.14728,-0.68521 -0.27353,-1.37188 -0.394158,-2.07013 z m 3.928909,-18.68904 c -0.12764,0 -0.28754,0.0174 -0.44044,-0.003 -0.34505,-0.0478 -0.6817,-0.15354 -0.87387,-0.47805 -0.31841,-0.53889 -0.38574,-1.15457 -0.1599,-1.7152 0.63822,-1.59061 1.37603,-3.13342 2.21063,-4.62699 0.0968,-0.17383 0.20338,-0.25206 0.40817,-0.26075 0.61017,-0.0247 1.09269,-0.62581 0.99872,-1.20962 -0.0743,-0.45922 -0.3114,-0.78373 -0.75044,-0.91265 -0.39696,-0.11589 -0.76727,-0.0449 -1.05482,0.28248 -0.32261,0.36941 -0.40538,0.78951 -0.17533,1.24585 0.0631,0.12457 0.0631,0.23468 -0.006,0.35636 -0.85564,1.52109 -1.58784,3.10736 -2.28217,4.71246 -0.15149,0.34913 -0.46007,0.47081 -0.77147,0.29552 -0.32262,-0.18252 -0.51479,-0.48674 -0.51198,-0.85615 0.006,-0.82862 0.0491,-1.65725 0.0856,-2.48443 0.08,-1.85283 0.16552,-3.7071 0.24126,-5.55992 0.008,-0.19846 0.0547,-0.32305 0.23284,-0.4317 0.40959,-0.24917 0.59053,-0.74171 0.4727,-1.18789 -0.12623,-0.47806 -0.51758,-0.81269 -0.98047,-0.83877 -0.41519,-0.0232 -0.865451,0.28828 -1.02115,0.70839 -0.168322,0.45343 -0.04209,0.95756 0.353475,1.25163 0.176745,0.13183 0.218815,0.2709 0.207595,0.47516 -0.0533,0.9706 -0.103797,1.94264 -0.14307,2.91469 -0.06172,1.49356 -0.113616,2.98856 -0.169727,4.48212 -0.01543,0.38679 -0.02948,0.77358 -0.05047,1.16036 -0.01824,0.3332 -0.221623,0.48385 -0.514784,0.35783 -0.294561,-0.12604 -0.541434,-0.31581 -0.666273,-0.64465 -0.164113,-0.43605 -0.342253,-0.86775 -0.517589,-1.29944 -0.53723,-1.32987 -1.080065,-2.65973 -1.563991,-4.01276 -0.06452,-0.18109 -0.102395,-0.33899 0.03787,-0.52442 0.298771,-0.39403 0.283341,-0.91554 0,-1.30523 -0.267912,-0.36941 -0.751838,-0.52152 -1.172642,-0.36796 -0.444651,0.1608 -0.746227,0.60989 -0.725187,1.07925 0.01964,0.46067 0.336644,0.88512 0.791112,0.99521 0.211806,0.0507 0.300175,0.1637 0.368906,0.35782 0.207597,0.58381 0.42361,1.16471 0.649442,1.73983 0.496549,1.26032 1.002919,2.51631 1.50087,3.77518 0.06172,0.15791 0.144476,0.31581 0.131853,0.4911 -0.04771,0.65913 -0.246873,1.27046 -0.827584,1.60075 -0.608764,0.34478 -1.294675,0.31436 -1.878191,-0.0565 -1.805252,-1.14734 -3.582449,-2.34248 -5.373674,-3.51443 -0.190765,-0.12459 -0.298771,-0.25642 -0.301577,-0.51282 -0.0056,-0.4824 -0.354878,-0.87644 -0.819166,-0.99667 -0.419402,-0.10865 -0.880884,0.0956 -1.124951,0.49688 -0.232845,0.38245 -0.200583,0.88658 0.07855,1.23715 0.317006,0.39838 0.774281,0.536 1.218931,0.33029 0.19357,-0.0898 0.335241,-0.0724 0.504965,0.0434 1.634125,1.10677 3.271054,2.20775 4.933233,3.27105 0.396959,0.25351 0.375918,0.78227 -0.03647,1.02129 -0.262302,0.15212 -0.53863,0.17964 -0.834596,0.0956 -1.136177,-0.3187 -2.282167,-0.59683 -3.435172,-0.84745 -1.980587,-0.4317 -3.956965,-0.87789 -5.937552,-1.30958 -0.189362,-0.042 -0.307188,-0.1159 -0.385738,-0.30566 -0.19357,-0.45923 -0.631207,-0.68811 -1.137575,-0.62292 -0.405375,0.0536 -0.79532,0.44038 -0.871065,0.86484 -0.08837,0.50123 0.147281,0.99087 0.587723,1.21832 0.391348,0.2028 0.925771,0.11588 1.227347,-0.23469 0.130449,-0.1521 0.248275,-0.18108 0.429221,-0.14486 3.196712,0.6316 6.366772,1.38056 9.532626,2.15559 0.23565,0.0579 0.35067,0.17238 0.324019,0.42879 -0.02665,0.25932 -0.207597,0.24338 -0.384335,0.25642 -0.77428,0.055 -1.547158,0.12893 -2.314425,0.24771 -1.726701,0.268 -3.432362,0.64465 -5.10997,1.15024 -0.169724,0.0507 -0.287549,0.0304 -0.415194,-0.10865 -0.216012,-0.23324 -0.500757,-0.32595 -0.81075,-0.28828 -0.555462,0.0666 -0.956629,0.5273 -0.969253,1.09662 -0.01122,0.49834 0.380127,0.99668 0.855636,1.08939 0.555462,0.10864 1.028166,-0.17963 1.217528,-0.76054 0.0505,-0.15356 0.127644,-0.24337 0.279134,-0.28249 0.279133,-0.0739 0.554059,-0.1608 0.83179,-0.23903 2.042305,-0.57511 4.128093,-0.90685 6.230713,-1.12125 0.53863,-0.055 1.084273,-0.14197 1.629916,0.0754 0.855636,0.34042 1.174045,0.89236 0.894911,1.79632 -0.223026,0.72288 -0.619985,1.33421 -1.232957,1.79632 -2.067553,1.55151 -4.154744,3.07694 -6.185827,4.68059 -0.117826,0.0927 -0.223027,0.11879 -0.357684,0.0463 -0.168322,-0.0898 -0.350671,-0.0999 -0.535824,-0.0593 -0.590529,0.12748 -0.960837,0.67942 -0.861247,1.28061 0.09678,0.58381 0.634012,0.98797 1.204904,0.9083 0.5232,-0.0739 0.952421,-0.66638 0.887897,-1.24439 -0.01403,-0.12458 0.0098,-0.20136 0.103799,-0.27669 0.302979,-0.24193 0.598945,-0.49544 0.903327,-0.73737 1.833305,-1.45588 3.742355,-2.80314 5.598103,-4.2286 0.38714,-0.29697 0.850025,-0.0927 0.921562,0.39403 0.03086,0.21005 -0.03226,0.38679 -0.150087,0.55628 -0.85283,1.23135 -1.684621,2.47574 -2.461707,3.76215 -0.872468,1.4443 -1.787016,2.86108 -2.680524,4.29234 -0.124839,0.19992 -0.270718,0.31871 -0.516188,0.35203 -0.482522,0.0652 -0.885092,0.5896 -0.866857,1.07055 0.01824,0.48095 0.309993,0.88802 0.744824,1.04448 0.394154,0.14196 0.875274,0.006 1.143186,-0.32161 0.304382,-0.37085 0.353476,-0.84455 0.100993,-1.28205 -0.09819,-0.17094 -0.07715,-0.28394 0.02104,-0.43605 0.499355,-0.77213 1.005723,-1.53846 1.477024,-2.32797 1.195085,-2.00349 2.414015,-3.98813 3.757784,-5.88877 0.07995,-0.11299 0.176738,-0.19846 0.291759,-0.2651 0.158503,-0.0913 0.32963,-0.15211 0.490938,-0.0247 0.168322,0.13328 0.213209,0.32305 0.157099,0.53455 -0.06873,0.26077 -0.145876,0.52007 -0.21461,0.78084 -0.705548,2.6771 -1.381641,5.36289 -2.003029,8.06173 -0.0505,0.2202 -0.143073,0.35781 -0.356281,0.44763 -0.584918,0.24482 -0.814958,0.96481 -0.511979,1.53702 0.286147,0.54034 1.008528,0.71708 1.526118,0.37375 0.516187,-0.34188 0.652247,-1.10098 0.237054,-1.58048 -0.209,-0.24048 -0.203389,-0.44908 -0.124839,-0.70838 0.02104,-0.0681 0.03927,-0.13908 0.0547,-0.20861 0.730797,-3.31306 1.572407,-6.5957 2.482749,-9.86096 0.123435,-0.44039 0.429218,-0.67362 0.823372,-0.78372 0.516193,-0.14341 1.144593,0.23323 1.307303,0.77358 0.27212,0.90396 0.53582,1.80936 0.79251,2.71766 0.60316,2.13676 1.16563,4.28511 1.68042,6.44649 0.0379,0.15646 0.0239,0.26366 -0.101,0.37955 -0.37452,0.34913 -0.46429,0.8634 -0.24687,1.30379 0.22864,0.46211 0.67469,0.68666 1.17966,0.59394 0.418,-0.0768 0.77708,-0.47371 0.8388,-0.92858 0.0701,-0.51282 -0.17113,-0.95321 -0.66066,-1.16471 -0.14869,-0.0638 -0.21181,-0.15357 -0.25108,-0.30712 -0.27493,-1.08938 -0.54845,-2.17877 -0.84021,-3.26381 -0.43062,-1.59786 -0.87527,-3.18993 -1.31572,-4.78488 -0.0715,-0.26076 -0.0224,-0.50413 0.0968,-0.73012 0.17253,-0.32885 0.45728,-0.36507 0.67891,-0.0754 0.92857,1.21687 1.87117,2.42359 2.71559,3.70709 1.33675,2.03101 2.4617,4.18804 3.58104,6.35088 0.0828,0.15936 0.0898,0.27959 -0.008,0.44329 -0.24266,0.40418 -0.16271,0.9677 0.1543,1.29944 0.34646,0.35927 0.86966,0.43894 1.30309,0.19701 0.38153,-0.21294 0.60456,-0.7417 0.50777,-1.20962 -0.0954,-0.46212 -0.48813,-0.8069 -0.97206,-0.84021 -0.12484,-0.009 -0.20619,-0.0434 -0.26791,-0.16659 -0.69433,-1.38347 -1.42092,-2.74955 -2.20081,-4.0852 -0.97346,-1.66885 -2.02267,-3.28408 -3.19811,-4.80807 -0.37452,-0.48674 -0.74343,-0.97784 -1.11233,-1.46893 -0.16692,-0.22165 -0.16973,-0.46936 -0.0687,-0.71564 0.0701,-0.17093 0.22303,-0.21439 0.39276,-0.20715 0.15148,0.006 0.25388,0.1072 0.36469,0.19412 0.92016,0.73012 1.8291,1.47762 2.80116,2.13386 1.42512,0.96191 2.81237,1.97741 4.12248,3.10301 0.15289,0.13037 0.2104,0.25351 0.17253,0.46067 -0.094,0.50413 0.22162,1.02999 0.69293,1.19079 0.42781,0.14632 0.8907,0.0159 1.16422,-0.32885 0.27212,-0.34187 0.31701,-0.85325 0.11081,-1.24584 -0.2104,-0.40127 -0.63401,-0.63595 -1.10671,-0.52875 -0.2581,0.0579 -0.418,-0.0261 -0.57931,-0.18108 -0.19217,-0.18543 -0.40959,-0.3361 -0.61718,-0.49979 -1.02677,-0.8098 -2.05914,-1.608 -3.14762,-2.32942 -1.16142,-0.76923 -2.24569,-1.65001 -3.33558,-2.52211 -0.38994,-0.31291 -0.52039,-0.75764 -0.48392,-1.25018 0.0337,-0.47226 0.47691,-0.94018 0.84161,-0.92279 1.6748,0.0797 3.33978,0.25351 4.99635,0.50993 1.44897,0.22454 2.89233,0.48095 4.30483,0.89961 0.18936,0.0565 0.2637,0.14921 0.32121,0.33029 0.1529,0.49109 0.5723,0.78662 1.05342,0.76923 0.45166,-0.0159 0.85423,-0.34188 0.98328,-0.79821 0.12624,-0.44908 -0.0533,-0.97349 -0.418,-1.21831 -0.43483,-0.29263 -0.90754,-0.26655 -1.30309,0.087 -0.10941,0.0985 -0.2076,0.14487 -0.35208,0.0913 -0.13045,-0.0478 -0.27072,-0.0666 -0.40678,-0.10141 -2.04371,-0.5273 -4.11687,-0.87498 -6.20967,-1.09662 -0.58913,-0.0623 -1.18106,-0.11011 -1.77018,-0.17094 -0.209,-0.0218 -0.37031,-0.13907 -0.40117,-0.35927 -0.0322,-0.23033 0.13325,-0.30857 0.32121,-0.34333 0.0772,-0.0145 0.15149,-0.0391 0.22864,-0.055 1.65096,-0.33463 3.31594,-0.60263 4.95567,-0.99522 2.08158,-0.49833 4.16036,-1.00681 6.23913,-1.51963 0.21321,-0.0521 0.3633,-0.0318 0.53863,0.13038 0.51619,0.47371 1.33115,0.31001 1.63272,-0.30132 0.28896,-0.58525 0.0673,-1.27191 -0.49233,-1.53412 -0.57931,-0.2709 -1.22034,0.007 -1.44898,0.6432 -0.0547,0.1521 -0.12904,0.23613 -0.28474,0.27234 -1.08848,0.25931 -2.17556,0.51862 -3.25703,0.80255 -1.92729,0.50559 -3.87,0.94743 -5.82954,1.30669 -0.89211,0.1637 -1.78281,0.34623 -2.67351,0.51427 -0.29036,0.055 -0.4671,-0.11589 -0.4657,-0.41722 0.002,-0.22743 0.13747,-0.33173 0.30859,-0.423 2.15593,-1.14733 4.26135,-2.39027 6.3808,-3.60714 0.16692,-0.0956 0.28896,-0.13038 0.47271,-0.0145 0.37592,0.23757 0.88369,0.14341 1.20911,-0.17964 0.34927,-0.34623 0.42922,-0.86484 0.20339,-1.31682 -0.19778,-0.39548 -0.66768,-0.61857 -1.13618,-0.5389 -0.40958,0.0695 -0.81776,0.46212 -0.83038,0.89382 -0.01,0.31435 -0.16692,0.43604 -0.38995,0.56353 -1.97497,1.114 -3.94715,2.23381 -5.93615,3.3232 -0.4208,0.23034 -0.84301,0.38244 -1.34797,0.34768 z"
       id="path1"
       style="fill:#fc7b9f;fill-opacity:0.111588;stroke:#fc7a9f;stroke-width:0.5;stroke-dasharray:none;stroke-opacity:0.43133" /><text
       xml:space="preserve"
       style="font-size:18.5121px;line-height:0;font-family:adelia;-inkscape-font-specification:adelia;letter-spacing:0px;word-spacing:0.164873px;direction:rtl;fill:#000000;fill-opacity:1;fill-rule:evenodd;stroke:#fc7a9f;stroke-width:0;stroke-dasharray:none;stroke-opacity:0.848276;paint-order:fill markers stroke"
       x="156.46918"
       y="146.73679"
       id="text1"
       transform="scale(1.0822877,0.92396874)"><tspan
         sodipodi:role="line"
         id="tspan1"
         style="line-height:0;letter-spacing:0px;fill:#000000;fill-opacity:1;stroke-width:0;stroke-dasharray:none"
         x="156.46918"
         y="146.73679">cherrybooks</tspan></text><text
       xml:space="preserve"
       transform="scale(0.26458333)"
       id="text2"
       style="font-size:21.3333px;font-family:adelia;-inkscape-font-specification:adelia;letter-spacing:2.85px;word-spacing:0.19px;direction:rtl;white-space:pre;shape-inside:url(#rect2);display:inline;fill:#fc7b9f;fill-opacity:1;fill-rule:evenodd;stroke:#fc7a9f;stroke-width:0;stroke-dasharray:none;stroke-opacity:0.848276;paint-order:fill markers stroke" /></g></svg>
